<svg version="1.1" id="Layer_1" xmlns="http://www.w3.org/2000/svg" xmlns:xlink="http://www.w3.org/1999/xlink" x="0px" y="0px"
	 width="100%" viewBox="0 0 680 444" enable-background="new 0 0 680 444" xml:space="preserve">
<path fill="#FFFFFF" opacity="1.000000" stroke="none" 
	d="M432.000000,445.000000 
	C288.031921,445.000000 144.563828,445.000000 1.047868,445.000000 
	C1.047868,297.064850 1.047868,149.129654 1.047868,1.097238 
	C227.551392,1.097238 454.102844,1.097238 680.827148,1.097238 
	C680.827148,148.999832 680.827148,296.999908 680.827148,445.000000 
	C598.129700,445.000000 515.314819,445.000000 432.000000,445.000000 
M325.181427,201.785324 
	C323.837555,202.766571 322.463074,203.708725 321.154297,204.734772 
	C285.245178,232.887070 249.338364,261.042267 213.441864,289.210663 
	C202.002106,298.187561 190.592850,307.203369 178.642776,316.616394 
	C284.075623,316.616394 388.667084,316.616394 494.055542,316.616394 
	C471.265564,302.301147 449.257568,288.418701 427.149139,274.698029 
	C425.330048,273.569092 422.831696,273.084686 420.643921,273.070282 
	C401.811951,272.946045 382.978821,272.998779 364.146057,272.998749 
	C358.557220,272.998718 352.968384,272.998749 345.907776,272.998749 
	C405.394714,225.567139 463.747589,179.039780 523.322754,131.537827 
	C411.114197,131.537827 300.484009,131.537827 189.576935,131.537827 
	C190.741959,132.417221 191.704819,133.247498 192.763870,133.928116 
	C213.324982,147.142502 233.845062,160.422455 254.532944,173.435608 
	C257.143097,175.077438 260.642853,176.043457 263.737671,176.061249 
	C292.568909,176.226898 321.401703,176.116364 350.234070,176.086288 
	C351.941559,176.084503 353.649078,176.086060 356.808899,176.086060 
	C353.411652,179.171082 351.235168,181.147568 348.418793,183.323303 
	C340.885376,189.375702 333.351990,195.428101 325.181427,201.785324 
M281.499542,25.388088 
	C195.476547,24.852674 109.453552,24.317261 22.049866,23.773252 
	C23.728548,25.077677 24.174858,25.483664 24.675482,25.805052 
	C61.217930,49.264309 97.732712,72.767151 134.376312,96.067390 
	C137.089630,97.792694 140.730515,98.877182 143.942230,98.881981 
	C241.914627,99.028351 339.887299,99.001900 437.859924,99.002335 
	C439.700439,99.002342 441.540955,99.002342 443.381470,99.002342 
	C443.512787,99.492874 443.644104,99.983406 443.775452,100.473938 
	C437.946014,105.398872 432.116608,110.323807 426.062622,115.438461 
	C426.926300,115.775803 427.207184,115.981216 427.488617,115.981911 
	C464.810730,116.073441 502.132935,116.190117 539.454834,116.120728 
	C541.543213,116.116844 543.979980,115.014328 545.663757,113.678452 
	C580.052734,86.395538 614.358887,59.008312 648.667969,31.624725 
	C651.119934,29.667658 653.466370,27.578312 656.049255,25.391876 
	C531.092712,25.391876 406.796173,25.391876 281.499542,25.388088 
M543.275085,351.012817 
	C447.798492,351.012817 352.321899,351.012817 256.845337,351.012817 
	C256.633911,350.430542 256.422485,349.848267 256.211060,349.265991 
	C264.499634,343.419189 272.788239,337.572388 282.179596,330.947693 
	C241.041748,330.947693 201.555893,330.917572 162.070511,331.037750 
	C160.121460,331.043701 157.903046,331.976685 156.278641,333.135071 
	C150.460159,337.284485 144.881180,341.767639 139.144226,346.033936 
	C106.187836,370.541992 73.215950,395.029266 40.220493,419.484711 
	C39.390419,420.099976 38.228596,420.267609 37.221485,420.644012 
	C37.664860,420.959290 38.108238,421.274536 38.551613,421.589783 
	C245.785400,421.589783 453.019165,421.589783 661.021729,421.589783 
	C624.073181,398.389191 587.887512,375.622101 551.608093,353.005280 
	C549.532288,351.711182 546.691345,351.644257 543.275085,351.012817 
z"/>
<path fill="#010101" opacity="1.000000" stroke="none" 
	d="
M281.999573,25.389982 
	C406.796173,25.391876 531.092712,25.391876 656.049255,25.391876 
	C653.466370,27.578312 651.119934,29.667658 648.667969,31.624725 
	C614.358887,59.008312 580.052734,86.395538 545.663757,113.678452 
	C543.979980,115.014328 541.543213,116.116844 539.454834,116.120728 
	C502.132935,116.190117 464.810730,116.073441 427.488617,115.981911 
	C427.207184,115.981216 426.926300,115.775803 426.062622,115.438461 
	C432.116608,110.323807 437.946014,105.398872 443.775452,100.473938 
	C443.644104,99.983406 443.512787,99.492874 443.381470,99.002342 
	C441.540955,99.002342 439.700439,99.002342 437.859924,99.002335 
	C339.887299,99.001900 241.914627,99.028351 143.942230,98.881981 
	C140.730515,98.877182 137.089630,97.792694 134.376312,96.067390 
	C97.732712,72.767151 61.217930,49.264309 24.675482,25.805052 
	C24.174858,25.483664 23.728548,25.077677 22.049866,23.773252 
	C109.453552,24.317261 195.476547,24.852674 281.999573,25.389982 
z"/>
<path fill="#000000" opacity="1.000000" stroke="none" 
	d="
M543.740845,351.009521 
	C546.691345,351.644257 549.532288,351.711182 551.608093,353.005280 
	C587.887512,375.622101 624.073181,398.389191 661.021729,421.589783 
	C453.019165,421.589783 245.785400,421.589783 38.551613,421.589783 
	C38.108238,421.274536 37.664860,420.959290 37.221485,420.644012 
	C38.228596,420.267609 39.390419,420.099976 40.220493,419.484711 
	C73.215950,395.029266 106.187836,370.541992 139.144226,346.033936 
	C144.881180,341.767639 150.460159,337.284485 156.278641,333.135071 
	C157.903046,331.976685 160.121460,331.043701 162.070511,331.037750 
	C201.555893,330.917572 241.041748,330.947693 282.179596,330.947693 
	C272.788239,337.572388 264.499634,343.419189 256.211060,349.265991 
	C256.422485,349.848267 256.633911,350.430542 256.845337,351.012817 
	C352.321899,351.012817 447.798492,351.012817 543.740845,351.009521 
z"/>
<path fill="#010101" opacity="1.000000" stroke="none" 
	d="
M349.058655,183.124039 
	C351.235168,181.147568 353.411652,179.171082 356.808899,176.086060 
	C353.649078,176.086060 351.941559,176.084503 350.234070,176.086288 
	C321.401703,176.116364 292.568909,176.226898 263.737671,176.061249 
	C260.642853,176.043457 257.143097,175.077438 254.532944,173.435608 
	C233.845062,160.422455 213.324982,147.142502 192.763870,133.928116 
	C191.704819,133.247498 190.741959,132.417221 189.576935,131.537827 
	C300.484009,131.537827 411.114197,131.537827 523.322754,131.537827 
	C463.747589,179.039780 405.394714,225.567139 345.907776,272.998749 
	C352.968384,272.998749 358.557220,272.998718 364.146057,272.998749 
	C382.978821,272.998779 401.811951,272.946045 420.643921,273.070282 
	C422.831696,273.084686 425.330048,273.569092 427.149139,274.698029 
	C449.257568,288.418701 471.265564,302.301147 494.055542,316.616394 
	C388.667084,316.616394 284.075623,316.616394 178.642776,316.616394 
	C190.592850,307.203369 202.002106,298.187561 213.441864,289.210663 
	C249.338364,261.042267 285.245178,232.887070 321.154297,204.734772 
	C322.463074,203.708725 323.837555,202.766571 325.639252,201.950775 
	C326.693817,202.234268 327.512390,202.666046 327.854614,202.424088 
	C334.962555,197.399216 342.070221,192.368561 348.992950,187.096161 
	C349.645050,186.599548 349.066071,184.486572 349.058655,183.124039 
z"/>
<path fill="#242424" opacity="1.000000" stroke="none" 
	d="
M348.738708,183.223663 
	C349.066071,184.486572 349.645050,186.599548 348.992950,187.096161 
	C342.070221,192.368561 334.962555,197.399216 327.854614,202.424088 
	C327.512390,202.666046 326.693817,202.234268 325.957825,201.798355 
	C333.351990,195.428101 340.885376,189.375702 348.738708,183.223663 
z"/>
</svg>